<svg xmlns="http://www.w3.org/2000/svg" viewBox="0 0 160 160" fill="none">
  
  <g stroke="currentColor" stroke-width="1.3" fill="none" stroke-linecap="round" opacity="0.9">
    <path d="M12 12 Q60 28 80 72 Q96 112 140 140"></path>
    
    <path d="M32 20 Q28 8 40 6"></path>
    <path d="M32 20 Q42 18 44 8"></path>
    <path d="M54 32 Q48 20 60 16"></path>
    <path d="M54 32 Q64 30 66 18"></path>
    <path d="M72 52 Q66 38 80 34"></path>
    <path d="M72 52 Q84 52 88 38"></path>
    <path d="M84 82 Q78 68 92 64"></path>
    <path d="M84 82 Q98 82 104 68"></path>
    <path d="M104 112 Q98 98 112 94"></path>
    <path d="M104 112 Q118 112 124 98"></path>
  </g>
</svg>