<svg xmlns="http://www.w3.org/2000/svg" viewBox="0 0 80 80" fill="none">
  
  <g stroke="currentColor" stroke-width="2.2" stroke-linecap="round" fill="none">
    <path d="M40 12 V68"></path>
    <path d="M40 22 C32 18 27 13 25 7"></path>
    <path d="M40 22 C48 18 53 13 55 7"></path>
    <path d="M40 34 C30 30 24 23 22 15"></path>
    <path d="M40 34 C50 30 56 23 58 15"></path>
    <path d="M40 46 C30 42 22 34 20 24"></path>
    <path d="M40 46 C50 42 58 34 60 24"></path>
    <path d="M40 58 C32 54 27 48 25 42"></path>
    <path d="M40 58 C48 54 53 48 55 42"></path>
  </g>
</svg>